<svg width="48" height="45" viewBox="0 0 48 45" fill="none" xmlns="http://www.w3.org/2000/svg">
<path d="M23.75 44.3458L20.3062 41.2042C16.3083 37.5389 13.0031 34.3771 10.3906 31.7188C7.77813 29.0604 5.7 26.674 4.15625 24.5594C2.6125 22.4448 1.53385 20.5014 0.920312 18.7292C0.306771 16.9569 0 15.1444 0 13.2917C0 9.50555 1.24688 6.34375 3.74062 3.80625C6.23437 1.26875 9.34167 0 13.0625 0C15.1208 0 17.0802 0.443056 18.9406 1.32917C20.801 2.21528 22.4042 3.46389 23.75 5.075C25.0958 3.46389 26.699 2.21528 28.5594 1.32917C30.4198 0.443056 32.3792 0 34.4375 0C38.1583 0 41.2656 1.26875 43.7594 3.80625C46.2531 6.34375 47.5 9.50555 47.5 13.2917C47.5 15.1444 47.1932 16.9569 46.5797 18.7292C45.9661 20.5014 44.8875 22.4448 43.3438 24.5594C41.8 26.674 39.7219 29.0604 37.1094 31.7188C34.4969 34.3771 31.1917 37.5389 27.1938 41.2042L23.75 44.3458ZM23.75 37.8208C27.55 34.3569 30.6771 31.3865 33.1312 28.9094C35.5854 26.4323 37.525 24.2774 38.95 22.4448C40.375 20.6122 41.3646 18.9809 41.9188 17.551C42.4729 16.1212 42.75 14.7014 42.75 13.2917C42.75 10.875 41.9583 8.86111 40.375 7.25C38.7917 5.63889 36.8125 4.83333 34.4375 4.83333C32.5771 4.83333 30.8552 5.36701 29.2719 6.43437C27.6885 7.50174 26.6 8.86111 26.0063 10.5125H21.4937C20.9 8.86111 19.8115 7.50174 18.2281 6.43437C16.6448 5.36701 14.9229 4.83333 13.0625 4.83333C10.6875 4.83333 8.70833 5.63889 7.125 7.25C5.54167 8.86111 4.75 10.875 4.75 13.2917C4.75 14.7014 5.02708 16.1212 5.58125 17.551C6.13542 18.9809 7.125 20.6122 8.55 22.4448C9.975 24.2774 11.9146 26.4323 14.3687 28.9094C16.8229 31.3865 19.95 34.3569 23.75 37.8208Z" fill="#E11414"/>
<path d="M23.75 37.8208C27.55 34.3569 30.6771 31.3865 33.1312 28.9094C35.5854 26.4323 37.525 24.2774 38.95 22.4448C40.375 20.6122 41.3646 18.9809 41.9188 17.551C42.4729 16.1212 42.75 14.7014 42.75 13.2917C42.75 10.875 41.9583 8.86111 40.375 7.25C38.7917 5.63889 36.8125 4.83333 34.4375 4.83333C32.5771 4.83333 30.8552 5.36701 29.2719 6.43437C27.6885 7.50174 26.6 8.86111 26.0063 10.5125H21.4937C20.9 8.86111 19.8115 7.50174 18.2281 6.43437C16.6448 5.36701 14.9229 4.83333 13.0625 4.83333C10.6875 4.83333 8.70833 5.63889 7.125 7.25C5.54167 8.86111 4.75 10.875 4.75 13.2917C4.75 14.7014 5.02708 16.1212 5.58125 17.551C6.13542 18.9809 7.125 20.6122 8.55 22.4448C9.975 24.2774 11.9146 26.4323 14.3687 28.9094C16.8229 31.3865 19.95 34.3569 23.75 37.8208Z" fill="#E11414"/>
</svg>
