<svg width="49" height="45" viewBox="0 0 49 45" fill="none" xmlns="http://www.w3.org/2000/svg">
<path d="M24.5 44.7501L21.0562 41.6085C17.0583 37.9432 13.7531 34.7814 11.1406 32.123C8.52812 29.4647 6.45 27.0783 4.90625 24.9637C3.3625 22.8491 2.28385 20.9057 1.67031 19.1335C1.05677 17.3612 0.75 15.5487 0.75 13.696C0.75 9.90985 1.99687 6.74805 4.49062 4.21055C6.98437 1.67305 10.0917 0.404297 13.8125 0.404297C15.8708 0.404297 17.8302 0.847352 19.6906 1.73346C21.551 2.61957 23.1542 3.86819 24.5 5.4793C25.8458 3.86819 27.449 2.61957 29.3094 1.73346C31.1698 0.847352 33.1292 0.404297 35.1875 0.404297C38.9083 0.404297 42.0156 1.67305 44.5094 4.21055C47.0031 6.74805 48.25 9.90985 48.25 13.696C48.25 15.5487 47.9432 17.3612 47.3297 19.1335C46.7161 20.9057 45.6375 22.8491 44.0937 24.9637C42.55 27.0783 40.4719 29.4647 37.8594 32.123C35.2469 34.7814 31.9417 37.9432 27.9437 41.6085L24.5 44.7501ZM24.5 38.2251C28.3 34.7612 31.4271 31.7908 33.8812 29.3137C36.3354 26.8366 38.275 24.6817 39.7 22.8491C41.125 21.0164 42.1146 19.3852 42.6687 17.9553C43.2229 16.5255 43.5 15.1057 43.5 13.696C43.5 11.2793 42.7083 9.26541 41.125 7.6543C39.5417 6.04319 37.5625 5.23763 35.1875 5.23763C33.3271 5.23763 31.6052 5.77131 30.0219 6.83867C28.4385 7.90603 27.35 9.26541 26.7562 10.9168H22.2437C21.65 9.26541 20.5615 7.90603 18.9781 6.83867C17.3948 5.77131 15.6729 5.23763 13.8125 5.23763C11.4375 5.23763 9.45833 6.04319 7.875 7.6543C6.29167 9.26541 5.5 11.2793 5.5 13.696C5.5 15.1057 5.77708 16.5255 6.33125 17.9553C6.88542 19.3852 7.875 21.0164 9.3 22.8491C10.725 24.6817 12.6646 26.8366 15.1187 29.3137C17.5729 31.7908 20.7 34.7612 24.5 38.2251Z" fill="#E11414"/>
</svg>
