<svg width="44" height="44" viewBox="0 0 44 44" fill="none" xmlns="http://www.w3.org/2000/svg">
<path d="M40.3667 43.75L25.1417 28.525C23.9333 29.4917 22.5437 30.2569 20.9729 30.8208C19.4021 31.3847 17.7306 31.6667 15.9583 31.6667C11.5681 31.6667 7.85243 30.1462 4.81146 27.1052C1.77049 24.0642 0.25 20.3486 0.25 15.9583C0.25 11.5681 1.77049 7.85243 4.81146 4.81146C7.85243 1.77049 11.5681 0.25 15.9583 0.25C20.3486 0.25 24.0642 1.77049 27.1052 4.81146C30.1462 7.85243 31.6667 11.5681 31.6667 15.9583C31.6667 17.7306 31.3847 19.4021 30.8208 20.9729C30.2569 22.5437 29.4917 23.9333 28.525 25.1417L43.75 40.3667L40.3667 43.75ZM15.9583 26.8333C18.9792 26.8333 21.5469 25.776 23.6615 23.6615C25.776 21.5469 26.8333 18.9792 26.8333 15.9583C26.8333 12.9375 25.776 10.3698 23.6615 8.25521C21.5469 6.14062 18.9792 5.08333 15.9583 5.08333C12.9375 5.08333 10.3698 6.14062 8.25521 8.25521C6.14062 10.3698 5.08333 12.9375 5.08333 15.9583C5.08333 18.9792 6.14062 21.5469 8.25521 23.6615C10.3698 25.776 12.9375 26.8333 15.9583 26.8333Z" fill="#585858"/>
</svg>
