<svg width="79" height="44" viewBox="0 0 79 44" fill="none" xmlns="http://www.w3.org/2000/svg">
<g id="Groupe bouton loupe search">
<g id="Bouton clic recherche" filter="url(#filter0_i_287_1542)">
<path d="M0 0H74C76.7614 0 79 2.23858 79 5V39C79 41.7614 76.7614 44 74 44H0V0Z" fill="#FF9900"/>
</g>
<path id="Vector" d="M38.2169 12.3973C33.8237 12.3973 30.25 15.8981 30.25 20.2016C30.25 24.5052 33.8237 28.006 38.2169 28.006C39.5599 28.006 40.8802 27.6938 41.9955 27.0918C42.0849 27.1971 42.1839 27.2941 42.2914 27.3816L44.5677 29.6115C44.7779 29.8431 45.0342 30.0303 45.3209 30.1614C45.6076 30.2925 45.9186 30.3649 46.2349 30.374C46.5512 30.3831 46.866 30.3288 47.1601 30.2145C47.4541 30.1001 47.7212 29.928 47.945 29.7088C48.1687 29.4897 48.3443 29.228 48.4611 28.94C48.5779 28.6519 48.6333 28.3435 48.624 28.0337C48.6147 27.7239 48.5408 27.4192 48.407 27.1383C48.2731 26.8575 48.082 26.6064 47.8455 26.4005L45.5693 24.1707C45.4584 24.0621 45.3363 23.9649 45.2051 23.8808C45.8197 22.7882 46.2066 21.5172 46.2066 20.1793C46.2066 15.8758 42.6329 12.375 38.2397 12.375L38.2169 12.3973ZM38.2169 14.6271C41.3809 14.6271 43.9076 17.1022 43.9076 20.2016C43.9076 21.6733 43.3613 23.0335 42.4053 24.0369C42.3825 24.0592 42.3597 24.0815 42.337 24.1038C42.2295 24.1913 42.1304 24.2884 42.0411 24.3937C41.0395 25.2856 39.6737 25.7985 38.1942 25.7985C35.0302 25.7985 32.5035 23.3234 32.5035 20.2239C32.5035 17.1245 35.0302 14.6494 38.1942 14.6494L38.2169 14.6271Z" fill="#292929"/>
</g>
<defs>
<filter id="filter0_i_287_1542" x="-1" y="-2" width="80" height="46" filterUnits="userSpaceOnUse" color-interpolation-filters="sRGB">
<feFlood flood-opacity="0" result="BackgroundImageFix"/>
<feBlend mode="normal" in="SourceGraphic" in2="BackgroundImageFix" result="shape"/>
<feColorMatrix in="SourceAlpha" type="matrix" values="0 0 0 0 0 0 0 0 0 0 0 0 0 0 0 0 0 0 127 0" result="hardAlpha"/>
<feOffset dx="-1" dy="-2"/>
<feGaussianBlur stdDeviation="1.5"/>
<feComposite in2="hardAlpha" operator="arithmetic" k2="-1" k3="1"/>
<feColorMatrix type="matrix" values="0 0 0 0 0 0 0 0 0 0 0 0 0 0 0 0 0 0 0.25 0"/>
<feBlend mode="normal" in2="shape" result="effect1_innerShadow_287_1542"/>
</filter>
</defs>
</svg>
