<svg width="118" height="70" viewBox="0 0 118 70" fill="none" xmlns="http://www.w3.org/2000/svg">
<g id="Logo wish gaming">
<path id="Vector" d="M3.35959 0.318974C6.01946 -0.649621 9.00173 0.662669 10.0012 3.24038L27.7659 49.1705L41.4843 3.5997C42.1291 1.45942 44.1442 0.00652388 46.4333 0.00652388C48.7224 0.00652388 50.7374 1.47504 51.3822 3.5997L65.1007 49.1705L82.8653 3.256C83.8648 0.678291 86.8309 -0.633999 89.5069 0.334596C92.1829 1.30319 93.5209 4.19335 92.5214 6.77106L69.3081 66.7614C68.5343 68.7767 66.5031 70.089 64.2785 69.9953C62.0539 69.9016 60.1356 68.4643 59.523 66.4021L46.4333 22.8622L33.3274 66.4021C32.6987 68.4643 30.7804 69.9172 28.5719 69.9953C26.3634 70.0734 24.3322 68.7767 23.5423 66.7614L0.32896 6.75544C-0.670504 4.17773 0.683608 1.28757 3.35959 0.318974Z" fill="#FF9900"/>
<path id="Vector_2" d="M116.901 38.9888L116.9 38.9896L116.891 38.9997C116.467 39.4621 115.871 39.7434 115.232 39.7779C114.592 39.8125 113.967 39.5972 113.493 39.1824L113.493 39.1824C111.374 37.329 108.762 36.103 105.961 35.6458C103.16 35.1886 100.283 35.5186 97.6654 36.5979C95.0477 37.6772 92.7956 39.462 91.1721 41.7461C89.5485 44.0303 88.6207 46.7195 88.498 49.501C88.3752 52.2825 89.0626 55.0403 90.4792 57.4532C91.8957 59.8661 93.9827 61.8344 96.496 63.1305C99.0092 64.4265 101.846 64.9977 104.677 64.7782C107.508 64.5587 110.218 63.5576 112.492 61.8899L112.696 61.7401V61.4867V52.9732V52.4732H112.196H103.491C102.851 52.4732 102.239 52.2243 101.789 51.7846C101.34 51.3452 101.09 50.7518 101.09 50.1354C101.09 49.519 101.34 48.9255 101.789 48.4862C102.239 48.0465 102.851 47.7975 103.491 47.7975H115.098C115.738 47.7975 116.35 48.0465 116.8 48.4862C117.249 48.9255 117.499 49.519 117.499 50.1354V62.8262C117.499 63.1535 117.429 63.4775 117.292 63.777C117.155 64.0766 116.954 64.3454 116.703 64.5654L116.702 64.5654C113.852 67.0586 110.324 68.6927 106.543 69.269C102.762 69.8453 98.8916 69.3388 95.3992 67.8113C91.9069 66.2838 88.943 63.8011 86.8641 60.6645C84.7852 57.528 83.6797 53.8712 83.6797 50.1354C83.6797 46.3996 84.7852 42.7427 86.8641 39.6062C88.943 36.4696 91.9069 33.9869 95.3992 32.4594C98.8916 30.9319 102.762 30.4254 106.543 31.0017C110.324 31.578 113.852 33.2121 116.702 35.7053L116.703 35.7054C117.177 36.1198 117.46 36.6991 117.496 37.3146C117.531 37.9257 117.318 38.5273 116.901 38.9888Z" fill="white" stroke="black"/>
</g>
</svg>
