<svg width="14" height="21" viewBox="0 0 14 21" fill="none" xmlns="http://www.w3.org/2000/svg">
<path id="Vector" d="M1 21L13 21C13.2652 21 13.5196 20.8894 13.7071 20.6925C13.8946 20.4955 14 20.2285 14 19.95L14 10.5L9 14.7L9 11.55L3 11.55V9.45L9 9.45L9 6.3L14 10.5L14 1.05C14 0.771524 13.8946 0.50445 13.7071 0.307537C13.5196 0.110624 13.2652 0 13 0L1 0C0.734783 0 0.480429 0.110624 0.292892 0.307537C0.105356 0.50445 0 0.771524 0 1.05L0 19.95C0 20.2285 0.105356 20.4955 0.292892 20.6925C0.480429 20.8894 0.734783 21 1 21Z" fill="#F0F0F0"/>
</svg>
