<svg width="21" height="21" viewBox="0 0 21 21" fill="none" xmlns="http://www.w3.org/2000/svg">
<g id="&#240;&#159;&#166;&#134; icon &#34;book open icon&#34;">
<g id="Group">
<path id="Vector" d="M19.5891 2.88838C19.4461 2.77173 19.2786 2.69069 19.1 2.65162C18.9213 2.61256 18.7362 2.61653 18.5593 2.66323L11.9609 4.40572V18.375L19.1696 16.4759C19.4274 16.4081 19.6557 16.2537 19.8182 16.0373C19.9806 15.8208 20.0678 15.5548 20.0659 15.2816V3.84773C20.0629 3.66108 20.0185 3.47759 19.9358 3.31131C19.8532 3.14503 19.7346 3.00036 19.5891 2.88838Z" fill="#F0F0F0"/>
<path id="Vector_2" d="M10.0547 4.40539L3.43726 2.66291C3.26305 2.62149 3.08206 2.6202 2.90731 2.65913C2.73255 2.69806 2.56836 2.77624 2.42653 2.88806C2.282 3.00406 2.16551 3.15275 2.08612 3.32255C2.00674 3.49234 1.9666 3.67866 1.96884 3.86699V15.2813C1.96904 15.5528 2.05722 15.8166 2.21949 16.031C2.38176 16.2455 2.60891 16.3984 2.86515 16.4658L10.0547 18.3747V4.40539Z" fill="#F0F0F0"/>
</g>
</g>
</svg>
