<svg width="23" height="21" viewBox="0 0 23 21" fill="none" xmlns="http://www.w3.org/2000/svg">
<g id="&#240;&#159;&#166;&#134; icon &#34;cart&#34;">
<path id="Vector" d="M1.53992 0.00709951C1.06097 0.081335 0.632079 0.336842 0.347596 0.717412C0.0631138 1.09798 -0.0536552 1.57244 0.022977 2.03641C0.0996092 2.50039 0.363365 2.91586 0.756222 3.19145C1.14908 3.46703 1.63886 3.58015 2.11781 3.50592H3.72595L4.05101 4.38062L5.53184 8.75414L7.01266 13.1277C7.15714 13.5825 7.77114 14.0024 8.24067 14.0024H18.0247C18.5304 14.0024 19.1083 13.5825 19.2527 13.1277L22.1783 4.38062C22.3228 3.92577 22.106 3.50592 21.6004 3.50592H8.42126L7.04878 0.986768C6.9026 0.697623 6.67689 0.453166 6.39649 0.280314C6.1161 0.107461 5.7919 0.0129198 5.4596 0.00709951L2.04557 0.00709951C1.93744 -0.0023665 1.82864 -0.0023665 1.72051 0.00709951C1.64834 0.00289714 1.57598 0.00289714 1.50381 0.00709951L1.53992 0.00709951ZM8.19123 17.5012C7.17993 17.5012 6.38534 18.2709 6.38534 19.2506C6.38534 20.2303 7.17993 21 8.19123 21C9.20253 21 9.99712 20.2303 9.99712 19.2506C9.99712 18.2709 9.20253 17.5012 8.19123 17.5012ZM19.0266 17.5012C18.0153 17.5012 17.2207 18.2709 17.2207 19.2506C17.2207 20.2303 18.0153 21 19.0266 21C20.0379 21 20.8324 20.2303 20.8324 19.2506C20.8324 18.2709 20.0379 17.5012 19.0266 17.5012Z" fill="#F0F0F0"/>
</g>
</svg>
